<svg width="32" height="28" viewBox="0 0 32 28" fill="none" xmlns="http://www.w3.org/2000/svg">
    <path fill-rule="evenodd" clip-rule="evenodd"
          d="M0 10C0 9.46957 0.210714 8.96086 0.585786 8.58579C0.960859 8.21071 1.46957 8 2 8H22.616C23.1464 8 23.6551 8.21071 24.0302 8.58579C24.4053 8.96086 24.616 9.46957 24.616 10C24.616 10.5304 24.4053 11.0391 24.0302 11.4142C23.6551 11.7893 23.1464 12 22.616 12H2C1.46957 12 0.960859 11.7893 0.585786 11.4142C0.210714 11.0391 0 10.5304 0 10ZM0 2C0 1.46957 0.210714 0.960859 0.585786 0.585786C0.960859 0.210714 1.46957 0 2 0H30C30.5304 0 31.0391 0.210714 31.4142 0.585786C31.7893 0.960859 32 1.46957 32 2C32 2.53043 31.7893 3.03914 31.4142 3.41421C31.0391 3.78929 30.5304 4 30 4H2C1.46957 4 0.960859 3.78929 0.585786 3.41421C0.210714 3.03914 0 2.53043 0 2ZM0 18C0 17.4696 0.210714 16.9609 0.585786 16.5858C0.960859 16.2107 1.46957 16 2 16H30C30.5304 16 31.0391 16.2107 31.4142 16.5858C31.7893 16.9609 32 17.4696 32 18C32 18.5304 31.7893 19.0391 31.4142 19.4142C31.0391 19.7893 30.5304 20 30 20H2C1.46957 20 0.960859 19.7893 0.585786 19.4142C0.210714 19.0391 0 18.5304 0 18ZM0 26C0 25.4696 0.210714 24.9609 0.585786 24.5858C0.960859 24.2107 1.46957 24 2 24H22.616C23.1464 24 23.6551 24.2107 24.0302 24.5858C24.4053 24.9609 24.616 25.4696 24.616 26C24.616 26.5304 24.4053 27.0391 24.0302 27.4142C23.6551 27.7893 23.1464 28 22.616 28H2C1.46957 28 0.960859 27.7893 0.585786 27.4142C0.210714 27.0391 0 26.5304 0 26Z"
          fill="white"/>
</svg>
